<svg id="gpllm-logo-vector" xmlns="http://www.w3.org/2000/svg" viewBox="0 0 462 340">
  <defs>
    <style>
      .driftwood-fill { fill: #936e42; }
      .matisse-fill   { fill: #1f6092; }
      .midnight-fill  { fill: #002f6e; }
      .prussian-fill  { fill: #002554; }
      .chamois-fill   { fill: #e5d3a1; }
    </style>
  </defs>
  <g id="gpllm-letter-g">
    <rect id="gpllm-block-g" class="prussian-fill" x="0" y="0" width="154" height="170" shape-rendering="crispEdges"/>
    <path id="gpllm-glyph-g" class="matisse-fill" d="M110 99h-28v-24h55v54.5c-37.15 33.96-107.94 26.16-119.51-28.49C2.69 31.12 80.49-6.64 131.95 35.6c-1.1 1.92-15.21 18.92-15.98 19.94-3-2.03-8.79-4.42-11.96-6.06-36.84-19.07-70.71 15.14-55.87 51.87 10.15 25.13 41.27 29.8 61.85 15.15v-17.5z"/>
  </g>
  <g id="gpllm-letter-p">
    <rect id="gpllm-block-p" class="matisse-fill" x="154" y="0" width="154" height="170" shape-rendering="crispEdges"/>
    <path id="gpllm-glyph-p" class="prussian-fill" fill-rule="evenodd" d="M184 22h48.5c18.7.9 37.8 4.9 47.3 22.7 16.7 31.4-6.5 67.3-41.3 67.3H212v38h-28zm28 26v39h26.5c.5 0 5.4-.1 6.4-.6 14.3-7.2 15.4-31.1.5-37.3-1.1-.4-5.4-1.1-5.9-1.1z"/>
  </g>
  <g id="gpllm-letter-l1">
    <rect id="gpllm-block-l1" class="midnight-fill" x="0" y="170" width="154" height="170" shape-rendering="crispEdges"/>
    <path id="gpllm-glyph-l1" class="driftwood-fill" d="M30 190h28v102h64v26H30z"/>
  </g>
  <g id="gpllm-letter-l2">
    <rect id="gpllm-block-l2" class="driftwood-fill" x="154" y="170" width="154" height="170" shape-rendering="crispEdges"/>
    <path id="gpllm-glyph-l2" class="chamois-fill" d="M184 190h28v102h64v26h-92z"/>
  </g>
  <g id="gpllm-letter-m">
    <rect id="gpllm-block-m" class="prussian-fill" x="308" y="170" width="154" height="170" shape-rendering="crispEdges"/>
    <path id="gpllm-glyph-m" class="matisse-fill" d="M321 190h31l33 53 33-53h31v128h-28v-82l-36 52-36-52v82h-28z"/>
  </g>
</svg>
